# xmcd
#
# Track frame offsets:
#	150
#	19035
#	33055
#	57222
#	76797
#	86942
#	100110
#	119385
#	133045
#	148710
#	172677
#	193895
#	208422
#	223760
#	250262
#
# Disc length: 3809 seconds
#
# Revision: 2
# Processed by: cddbd v1.4PL0 Copyright (c) Steve Scherf et al.
# Submitted via: audiograbber 1.81.03
#
DISCID=d20edf0f
DTITLE=Rock Bottom - Harmaniac
DYEAR=1993
DGENRE=Blues
TTITLE0=Boozoo Stomp
TTITLE1=Gator Tail
TTITLE2=Voodoo Idol
TTITLE3=Run and Hide
TTITLE4=Ellie May
TTITLE5=Cigarette Blues
TTITLE6=Hot For A Woman
TTITLE7=Lets Go Jookin'
TTITLE8=Keep Your Hands Off Of Him
TTITLE9=Stormy Monday
TTITLE10=Big Mamoo
TTITLE11=St. Pete Kid
TTITLE12=Snakie's Ribs
TTITLE13=Truckin' Little Sucker
TTITLE14=St. Pete Stomp
EXTD=
EXTT0=
EXTT1=
EXTT2=
EXTT3=
EXTT4=
EXTT5=
EXTT6=
EXTT7=
EXTT8=
EXTT9=
EXTT10=
EXTT11=
EXTT12=
EXTT13=
EXTT14=
PLAYORDER=
